#!OML:ASF C:\ViconDB\ViconDB\414\Spring2016\041811\Spring2016.ASF
:FULLY-SPECIFIED
:DEGREES
191
root 10.534 18.9869 -9.82734 181.944 11.9112 176.398
lowerback -0.979851 -1.31015 -8.93622
upperback -1.4548 -1.56232 -2.13295
thorax -0.771529 -0.635498 2.78654
lowerneck -19.6177 -3.19403 -10.6763
upperneck 27.1367 -4.73707 16.4493
head 13.0583 -0.558498 7.72414
rclavicle -1.51946e-014 2.38542e-014
rhumerus -36.8184 -16.0598 6.95958
rradius 31.7691
rwrist 36.6084
rhand -28.769 -14.6581
rfingers 7.12502
rthumb -2.12865 -44.6273
lclavicle -1.51946e-014 2.38542e-014
lhumerus -32.4955 -11.8342 3.74862
lradius 26.1685
lwrist -14.2624
lhand -27.2386 19.5615
lfingers 7.12502
lthumb -0.650501 49.5402
rfemur -29.5353 -199.824 0.691363
rtibia 35.1874
rfoot -13.7063 -63.8234
rtoes 0.372095
lfemur -1.92925 1.7924 -3.57636
ltibia 34.2141
lfoot -5.58175 -2.27496
ltoes -13.8293
192
root 10.6242 18.966 -9.80869 182.117 14.6035 176.318
lowerback -0.514742 -1.13059 -9.19214
upperback -1.51165 -1.37919 -2.21865
thorax -1.11025 -0.525539 2.85042
lowerneck -19.9501 -3.0693 -10.0924
upperneck 26.7945 -4.59807 15.7249
head 12.9208 -0.564596 7.29248
rclavicle -3.74709e-014 1.98785e-014
rhumerus -36.9775 -16.6611 7.6855
rradius 31.6156
rwrist 37.1959
rhand -28.5022 -14.8418
rfingers 7.12502
rthumb -1.87094 -44.8134
lclavicle -3.74709e-014 1.98785e-014
lhumerus -32.5285 -12.142 2.46043
lradius 26.212
lwrist -14.1794
lhand -27.3774 19.7383
lfingers 7.12502
lthumb -0.784549 49.7166
rfemur -28.5082 -198.993 1.03203
rtibia 35.1609
rfoot -16.3597 -62.2442
rtoes 2.88539
lfemur 0.0577272 0.432294 -3.07654
ltibia 31.0006
lfoot -6.63478 1.04851
ltoes -14.1278
193
root 10.6919 18.952 -9.78117 182.325 17.1835 175.843
lowerback 0.0174002 -1.00049 -9.71005
upperback -1.67565 -1.26948 -2.43371
thorax -1.58889 -0.432631 2.92357
lowerneck -19.6961 -2.92909 -10.3615
upperneck 25.9194 -4.47736 16.3355
head 12.5192 -0.505212 7.53314
rclavicle 2.21739e-014 -2.38542e-014
rhumerus -37.259 -17.2594 8.37328
rradius 31.4409
rwrist 38.0803
rhand -28.4135 -14.5434
rfingers 7.12502
rthumb -1.7853 -44.5157
lclavicle 2.21739e-014 -2.38542e-014
lhumerus -32.362 -12.6629 1.37865
lradius 26.2263
lwrist -13.6741
lhand -27.5579 20.1802
lfingers 7.12502
lthumb -0.958906 50.1578
rfemur -27.317 -198.939 0.774693
rtibia 35.1358
rfoot -20.3793 -61.9772
rtoes 7.01629
lfemur 1.90671 -1.79553 -3.41197
ltibia 27.5612
lfoot -7.92688 5.22474
ltoes -13.5307
194
root 10.74 18.9411 -9.75059 182.418 19.4833 175.089
lowerback 0.685746 -0.923127 -10.3442
upperback -1.77993 -1.24947 -2.72162
thorax -2.07262 -0.379435 2.98457
lowerneck -19.3957 -3.05006 -11.7524
upperneck 24.7071 -4.64243 18.1748
head 12.1075 -0.534369 8.43217
rclavicle 5.23052e-014 2.46493e-014
rhumerus -37.8164 -17.6308 8.90425
rradius 31.5151
rwrist 38.2502
rhand -28.5781 -14.6909
rfingers 7.12502
rthumb -1.94424 -44.6618
lclavicle 5.23052e-014 2.46493e-014
lhumerus -32.2471 -11.7935 0.144234
lradius 26.2224
lwrist -14.7169
lhand -27.2425 20.6243
lfingers 7.12502
lthumb -0.654305 50.603
rfemur -26.146 -199.079 0.16949
rtibia 35.1136
rfoot -24.7019 -61.8543
rtoes 8.6043
lfemur 3.46019 -4.53338 -4.37328
ltibia 24.2227
lfoot -9.1949 9.70781
ltoes -12.7454
195
root 10.7804 18.9558 -9.71824 182.573 21.4909 175.063
lowerback 1.57821 -0.953679 -10.4479
upperback -1.90173 -1.4273 -2.7604
thorax -2.6822 -0.43527 3.02084
lowerneck -19.4607 -3.24973 -12.4957
upperneck 24.174 -4.9285 19.2043
head 12.031 -0.627373 8.92445
rclavicle 3.57564e-014 5.40694e-014
rhumerus -38.3876 -17.6555 9.08272
rradius 31.7154
rwrist 38.1602
rhand -28.8208 -14.3462
rfingers 7.12502
rthumb -2.17865 -44.3149
lclavicle 3.57564e-014 5.40694e-014
lhumerus -32.4561 -11.4479 -0.694769
lradius 26.3951
lwrist -14.554
lhand -27.9089 21.0947
lfingers 7.12502
lthumb -1.29791 51.0705
rfemur -25.0624 -199.069 0.397
rtibia 34.943
rfoot -28.2774 -61.5826
rtoes 8.90537
lfemur 4.89485 -7.80064 -4.7486
ltibia 21.0835
lfoot -10.829 14.1891
ltoes -11.9966
196
root 10.795 18.9576 -9.68412 182.933 23.3326 175.053
lowerback 2.26057 -0.902817 -10.3573
upperback -2.01687 -1.46514 -2.78987
thorax -3.1882 -0.431439 2.95409
lowerneck -19.6294 -3.4865 -12.8913
upperneck 23.7413 -5.18388 19.3457
head 11.9685 -0.789978 8.98101
rclavicle -3.29237e-014 2.14687e-014
rhumerus -39.4612 -17.3696 9.44104
rradius 32.0591
rwrist 37.7684
rhand -28.7041 -14.6414
rfingers 7.12502
rthumb -2.06593 -44.6112
lclavicle -3.29237e-014 2.14687e-014
lhumerus -32.4937 -10.8123 -1.01647
lradius 26.8056
lwrist -14.4769
lhand -28.4225 21.5352
lfingers 7.12502
lthumb -1.79401 51.5074
rfemur -23.8333 -200.051 0.588386
rtibia 34.6807
rfoot -32.3346 -61.7576
rtoes 10.4074
lfemur 5.73689 -10.8932 -5.17345
ltibia 18.2759
lfoot -12.0679 18.1722
ltoes -11.368
197
root 10.7976 18.9766 -9.66524 183.738 24.9716 175.386
lowerback 2.40222 -0.944878 -9.92076
upperback -2.06479 -1.53958 -2.74264
thorax -3.31716 -0.476669 2.76935
lowerneck -19.8651 -3.76914 -13.3564
upperneck 23.1481 -5.51971 19.7699
head 11.8937 -0.957225 9.14899
rclavicle 2.26118e-014 7.23576e-014
rhumerus -40.6237 -18.7404 10.3479
rradius 31.8571
rwrist 38.85
rhand -29.328 -14.3213
rfingers 7.12502
rthumb -2.66851 -44.2843
lclavicle 2.26118e-014 7.23576e-014
lhumerus -32.5321 -9.99209 -0.998797
lradius 27.0965
lwrist -13.3347
lhand -29.475 21.6893
lfingers 7.12502
lthumb -2.81041 51.6506
rfemur -22.2495 -201.867 1.20413
rtibia 34.2394
rfoot -37.3519 -61.9602
rtoes 11.4883
lfemur 6.02286 -14.301 -5.36308
ltibia 15.726
lfoot -13.3322 21.9442
ltoes -10.2315
198
root 10.7991 19.0086 -9.65212 184.591 26.6824 175.693
lowerback 2.3848 -0.94067 -9.69279
upperback -2.07046 -1.53378 -2.64457
thorax -3.31629 -0.483742 2.74565
lowerneck -20.0911 -4.01668 -13.8372
upperneck 22.4342 -5.78538 20.2199
head 11.7623 -1.09302 9.33048
rclavicle 2.70347e-014 8.42847e-014
rhumerus -41.9586 -18.6038 10.3965
rradius 32.0218
rwrist 37.8595
rhand -30.0067 -14.3887
rfingers 7.12502
rthumb -3.32391 -44.3426
lclavicle 2.70347e-014 8.42847e-014
lhumerus -32.7986 -9.89708 -0.359306
lradius 27.5772
lwrist -11.4968
lhand -30.3499 22.5055
lfingers 7.12502
lthumb -3.6554 52.4539
rfemur -20.6108 -204.14 1.9027
rtibia 33.7312
rfoot -42.7678 -62.2504
rtoes 13.3751
lfemur 5.87178 -17.4007 -5.56682
ltibia 13.6392
lfoot -14.286 24.8365
ltoes -9.76956
199
root 10.8014 19.0556 -9.65111 185.413 28.3571 175.761
lowerback 2.14461 -0.957982 -9.86068
upperback -2.01756 -1.53249 -2.53049
thorax -3.11887 -0.491288 2.95233
lowerneck -20.4276 -4.26187 -14.0161
upperneck 21.7732 -6.05229 20.316
head 11.6509 -1.23903 9.30667
rclavicle -1.4064e-014 2.3059e-014
rhumerus -43.3023 -18.4849 10.3095
rradius 32.0782
rwrist 36.7141
rhand -30.686 -14.6031
rfingers 7.12502
rthumb -3.97988 -44.5457
lclavicle -1.4064e-014 2.3059e-014
lhumerus -33.4265 -10.2814 0.745429
lradius 28.2023
lwrist -8.73677
lhand -31.3279 22.7665
lfingers 7.12502
lthumb -4.59976 52.6966
rfemur -18.7857 -206.918 2.5051
rtibia 33.0575
rfoot -49.4588 -62.3638
rtoes 14.1654
lfemur 5.27449 -20.4327 -5.95091
ltibia 11.9148
lfoot -15.5812 26.9531
ltoes -9.14402
200
root 10.79 19.1133 -9.64531 186.086 30.2218 175.703
lowerback 2.15268 -0.912282 -10.1714
upperback -2.00784 -1.48413 -2.4742
thorax -3.11255 -0.461229 3.18045
lowerneck -20.6618 -4.42793 -14.2384
upperneck 21.0501 -6.23163 20.6742
head 11.494 -1.31571 9.41322
rclavicle -8.31914e-014 2.06736e-014
rhumerus -44.4282 -18.4432 9.70914
rradius 31.8847
rwrist 34.6184
rhand -32.2831 -16.0246
rfingers 7.12502
rthumb -5.52208 -45.9327
lclavicle -8.31914e-014 2.06736e-014
lhumerus -33.7439 -10.5777 1.85375
lradius 28.2748
lwrist -7.36501
lhand -31.9357 23.1865
lfingers 7.12502
lthumb -5.18664 53.103
rfemur -16.7732 -209.785 3.1614
rtibia 32.2968
rfoot -56.9958 -62.1591
rtoes 14.9688
lfemur 4.23667 -22.7254 -6.46052
ltibia 10.8643
lfoot -16.5743 28.0557
ltoes -8.99245
201
root 10.7696 19.1782 -9.6456 186.712 32.2174 175.675
lowerback 2.17767 -0.822881 -10.4608
upperback -1.99485 -1.38029 -2.40573
thorax -3.12082 -0.404224 3.40763
lowerneck -20.8628 -4.53864 -14.4469
upperneck 20.4341 -6.32162 20.9498
head 11.3481 -1.35817 9.50507
rclavicle -3.0911e-014 8.74653e-015
rhumerus -45.7486 -19.1412 9.77231
rradius 31.6993
rwrist 35.2731
rhand -32.4371 -16.1844
rfingers 7.12502
rthumb -5.67078 -46.0885
lclavicle -3.0911e-014 8.74653e-015
lhumerus -34.2635 -10.5606 2.80086
lradius 28.5215
lwrist -6.76237
lhand -31.7905 23.2735
lfingers 7.12502
lthumb -5.04649 53.1934
rfemur -14.6307 -213.415 4.0362
rtibia 31.5207
rfoot -66.4194 -61.3728
rtoes 14.5408
lfemur 2.52204 -24.313 -6.90302
ltibia 10.9078
lfoot -18.0812 27.8709
ltoes -9.34647
